<svg xmlns="http://www.w3.org/2000/svg" width="128" height="128" fill="none"><rect width="128" height="128" rx="20" fill="#101010"/><path d="M60.556 22c9.851 0 18.481 1.755 25.888 5.264 7.482 3.435 13.26 8.325 17.334 14.672C107.926 48.208 110 55.563 110 64s-2.074 15.83-6.222 22.176c-4.074 6.272-9.852 11.163-17.334 14.672C79.037 104.283 70.407 106 60.556 106H19V22h41.556ZM41.889 96.256l-11-10.864h31.444c4.963 0 9.26-.859 12.89-2.576 3.703-1.792 6.555-4.293 8.555-7.504 2-3.21 3-6.981 3-11.312 0-4.405-1-8.176-3-11.312-2-3.21-4.852-5.675-8.556-7.392-3.63-1.792-7.926-2.688-12.889-2.688H30.89l11-10.864v64.512Z" fill="#0ED1A2"/></svg>